2111 On ch=2 n=69 v=80
2687 On ch=2 n=69 v=0
2687 On ch=2 n=71 v=80
3839 On ch=2 n=71 v=0
3839 On ch=2 n=69 v=80
4031 On ch=2 n=69 v=0
4031 On ch=2 n=71 v=80
4224 On ch=2 n=71 v=0
4224 On ch=2 n=72 v=80
4415 On ch=2 n=72 v=0
4415 On ch=2 n=71 v=80
4607 On ch=2 n=71 v=0
4607 On ch=2 n=69 v=80
4800 On ch=2 n=69 v=0
4800 On ch=2 n=71 v=80
4991 On ch=2 n=71 v=0
4991 On ch=2 n=72 v=80
5567 On ch=2 n=72 v=0
5567 On ch=2 n=71 v=80
6528 On ch=2 n=71 v=0
6528 On ch=2 n=69 v=80
6911 On ch=2 n=69 v=0
6911 On ch=2 n=76 v=80
7104 On ch=2 n=76 v=0
7104 On ch=2 n=72 v=80
7680 On ch=2 n=72 v=0
7680 On ch=2 n=71 v=80
8639 On ch=2 n=71 v=0
8639 On ch=2 n=69 v=80
8832 On ch=2 n=69 v=0
8832 On ch=2 n=76 v=80
9023 On ch=2 n=76 v=0
9023 On ch=2 n=72 v=80
9215 On ch=2 n=72 v=0
9215 On ch=2 n=71 v=80
9408 On ch=2 n=71 v=0
9408 On ch=2 n=69 v=80
9599 On ch=2 n=69 v=0
9599 On ch=2 n=71 v=80
9791 On ch=2 n=71 v=0
9791 On ch=2 n=72 v=80
10367 On ch=2 n=72 v=0
10367 On ch=2 n=71 v=80
11519 On ch=2 n=71 v=0
11519 On ch=2 n=69 v=80
11712 On ch=2 n=69 v=0
11712 On ch=2 n=76 v=80
11903 On ch=2 n=76 v=0
11903 On ch=2 n=72 v=80
12095 On ch=2 n=72 v=0
12095 On ch=2 n=71 v=80
12288 On ch=2 n=71 v=0
12288 On ch=2 n=69 v=80
12479 On ch=2 n=69 v=0
12479 On ch=2 n=71 v=80
12671 On ch=2 n=71 v=0
12671 On ch=2 n=72 v=80
13247 On ch=2 n=72 v=0
13247 On ch=2 n=74 v=80
13823 On ch=2 n=74 v=0
13823 On ch=2 n=76 v=80
13823 On ch=2 n=64 v=80
14016 On ch=2 n=64 v=0
14016 On ch=2 n=64 v=80
14207 On ch=2 n=64 v=0
14207 On ch=2 n=64 v=80
14399 On ch=2 n=76 v=0
14399 On ch=2 n=64 v=0
14399 On ch=2 n=69 v=80
14448 On ch=2 n=69 v=0
14448 On ch=2 n=64 v=80
14495 On ch=2 n=64 v=0
14495 On ch=2 n=71 v=80
14543 On ch=2 n=71 v=0
14543 On ch=2 n=64 v=80
14592 On ch=2 n=64 v=0
14592 On ch=2 n=72 v=80
14639 On ch=2 n=72 v=0
14639 On ch=2 n=64 v=80
14687 On ch=2 n=64 v=0
14687 On ch=2 n=71 v=80
14736 On ch=2 n=71 v=0
14736 On ch=2 n=64 v=80
14783 On ch=2 n=64 v=0
14783 On ch=2 n=69 v=80
14831 On ch=2 n=69 v=0
14831 On ch=2 n=64 v=80
14880 On ch=2 n=64 v=0
14880 On ch=2 n=72 v=80
14927 On ch=2 n=72 v=0
14927 On ch=2 n=64 v=80
14975 On ch=2 n=64 v=0
14975 On ch=2 n=71 v=80
15024 On ch=2 n=71 v=0
15024 On ch=2 n=64 v=80
15071 On ch=2 n=64 v=0
15071 On ch=2 n=69 v=80
15119 On ch=2 n=69 v=0
15119 On ch=2 n=64 v=80
15168 On ch=2 n=64 v=0
15168 On ch=2 n=67 v=80
15215 On ch=2 n=67 v=0
15215 On ch=2 n=64 v=80
15263 On ch=2 n=64 v=0
15263 On ch=2 n=69 v=80
15312 On ch=2 n=69 v=0
15312 On ch=2 n=64 v=80
15359 On ch=2 n=64 v=0
15359 On ch=2 n=71 v=80
15407 On ch=2 n=71 v=0
15407 On ch=2 n=64 v=80
15456 On ch=2 n=64 v=0
15456 On ch=2 n=76 v=80
15503 On ch=2 n=76 v=0
15503 On ch=2 n=64 v=80
15551 On ch=2 n=64 v=0
15551 On ch=2 n=71 v=80
15600 On ch=2 n=71 v=0
15600 On ch=2 n=64 v=80
15647 On ch=2 n=64 v=0
15647 On ch=2 n=69 v=80
15695 On ch=2 n=69 v=0
15695 On ch=2 n=64 v=80
15744 On ch=2 n=64 v=0
15744 On ch=2 n=67 v=80
15791 On ch=2 n=67 v=0
15791 On ch=2 n=64 v=80
15839 On ch=2 n=64 v=0
15839 On ch=2 n=69 v=80
15888 On ch=2 n=69 v=0
15888 On ch=2 n=64 v=80
15935 On ch=2 n=64 v=0
15935 On ch=2 n=71 v=80
15983 On ch=2 n=71 v=0
15983 On ch=2 n=64 v=80
16032 On ch=2 n=64 v=0
16032 On ch=2 n=76 v=80
16079 On ch=2 n=76 v=0
16079 On ch=2 n=64 v=80
16127 On ch=2 n=64 v=0
16127 On ch=2 n=69 v=80
16176 On ch=2 n=69 v=0
16176 On ch=2 n=64 v=80
16223 On ch=2 n=64 v=0
16223 On ch=2 n=76 v=80
16271 On ch=2 n=76 v=0
16271 On ch=2 n=64 v=80
16320 On ch=2 n=64 v=0
16320 On ch=2 n=71 v=80
16367 On ch=2 n=71 v=0
16367 On ch=2 n=64 v=80
16415 On ch=2 n=64 v=0
16415 On ch=2 n=76 v=80
16464 On ch=2 n=76 v=0
16464 On ch=2 n=64 v=80
16511 On ch=2 n=64 v=0
16511 On ch=2 n=72 v=80
16559 On ch=2 n=72 v=0
16559 On ch=2 n=64 v=80
16608 On ch=2 n=64 v=0
16608 On ch=2 n=76 v=80
16655 On ch=2 n=76 v=0
16655 On ch=2 n=64 v=80
16703 On ch=2 n=64 v=0
16703 On ch=2 n=71 v=80
16752 On ch=2 n=71 v=0
16752 On ch=2 n=64 v=80
16799 On ch=2 n=64 v=0
16799 On ch=2 n=76 v=80
16847 On ch=2 n=76 v=0
16847 On ch=2 n=64 v=80
16896 On ch=2 n=64 v=0
16896 On ch=2 n=69 v=80
16943 On ch=2 n=69 v=0
16943 On ch=2 n=64 v=80
16991 On ch=2 n=64 v=0
16991 On ch=2 n=76 v=80
17040 On ch=2 n=76 v=0
17040 On ch=2 n=64 v=80
17087 On ch=2 n=64 v=0
17087 On ch=2 n=71 v=80
17135 On ch=2 n=71 v=0
17135 On ch=2 n=64 v=80
17184 On ch=2 n=64 v=0
17184 On ch=2 n=76 v=80
17231 On ch=2 n=76 v=0
17231 On ch=2 n=64 v=80
17279 On ch=2 n=64 v=0
17279 On ch=2 n=72 v=80
17328 On ch=2 n=72 v=0
17328 On ch=2 n=64 v=80
17375 On ch=2 n=64 v=0
17375 On ch=2 n=74 v=80
17423 On ch=2 n=74 v=0
17423 On ch=2 n=64 v=80
17472 On ch=2 n=64 v=0
17472 On ch=2 n=72 v=80
17519 On ch=2 n=72 v=0
17519 On ch=2 n=64 v=80
17567 On ch=2 n=64 v=0
17567 On ch=2 n=71 v=80
17616 On ch=2 n=71 v=0
17616 On ch=2 n=64 v=80
17663 On ch=2 n=64 v=0
17663 On ch=2 n=69 v=80
17711 On ch=2 n=69 v=0
17711 On ch=2 n=64 v=80
17760 On ch=2 n=64 v=0
17760 On ch=2 n=72 v=80
17807 On ch=2 n=72 v=0
17807 On ch=2 n=64 v=80
17855 On ch=2 n=64 v=0
17855 On ch=2 n=71 v=80
17904 On ch=2 n=71 v=0
17904 On ch=2 n=64 v=80
17951 On ch=2 n=64 v=0
17951 On ch=2 n=69 v=80
17999 On ch=2 n=69 v=0
17999 On ch=2 n=64 v=80
18048 On ch=2 n=64 v=0
18048 On ch=2 n=67 v=80
18095 On ch=2 n=67 v=0
18095 On ch=2 n=64 v=80
18143 On ch=2 n=64 v=0
18143 On ch=2 n=69 v=80
18192 On ch=2 n=69 v=0
18192 On ch=2 n=64 v=80
18239 On ch=2 n=64 v=0
18239 On ch=2 n=71 v=80
18287 On ch=2 n=71 v=0
18287 On ch=2 n=64 v=80
18336 On ch=2 n=64 v=0
18336 On ch=2 n=76 v=80
18383 On ch=2 n=76 v=0
18383 On ch=2 n=64 v=80
18431 On ch=2 n=64 v=0
18431 On ch=2 n=71 v=80
18480 On ch=2 n=71 v=0
18480 On ch=2 n=64 v=80
18527 On ch=2 n=64 v=0
18527 On ch=2 n=69 v=80
18575 On ch=2 n=69 v=0
18575 On ch=2 n=64 v=80
18624 On ch=2 n=64 v=0
18624 On ch=2 n=67 v=80
18671 On ch=2 n=67 v=0
18671 On ch=2 n=64 v=80
18719 On ch=2 n=64 v=0
18719 On ch=2 n=69 v=80
18768 On ch=2 n=69 v=0
18768 On ch=2 n=64 v=80
18815 On ch=2 n=64 v=0
18815 On ch=2 n=71 v=80
18863 On ch=2 n=71 v=0
18863 On ch=2 n=64 v=80
18912 On ch=2 n=64 v=0
18912 On ch=2 n=76 v=80
18959 On ch=2 n=76 v=0
18959 On ch=2 n=64 v=80
19007 On ch=2 n=64 v=0
19007 On ch=2 n=69 v=80
19056 On ch=2 n=69 v=0
19056 On ch=2 n=64 v=80
19103 On ch=2 n=64 v=0
19103 On ch=2 n=71 v=80
19151 On ch=2 n=71 v=0
19151 On ch=2 n=64 v=80
19200 On ch=2 n=64 v=0
19200 On ch=2 n=72 v=80
19247 On ch=2 n=72 v=0
19247 On ch=2 n=64 v=80
19295 On ch=2 n=64 v=0
19295 On ch=2 n=71 v=80
19344 On ch=2 n=71 v=0
19344 On ch=2 n=64 v=80
19391 On ch=2 n=64 v=0
19391 On ch=2 n=69 v=80
19439 On ch=2 n=69 v=0
19439 On ch=2 n=64 v=80
19488 On ch=2 n=64 v=0
19488 On ch=2 n=72 v=80
19535 On ch=2 n=72 v=0
19535 On ch=2 n=64 v=80
19583 On ch=2 n=64 v=0
19583 On ch=2 n=71 v=80
19632 On ch=2 n=71 v=0
19632 On ch=2 n=64 v=80
19679 On ch=2 n=64 v=0
19679 On ch=2 n=69 v=80
19727 On ch=2 n=69 v=0
19727 On ch=2 n=64 v=80
19776 On ch=2 n=64 v=0
19776 On ch=2 n=67 v=80
19823 On ch=2 n=67 v=0
19823 On ch=2 n=64 v=80
19871 On ch=2 n=64 v=0
19871 On ch=2 n=69 v=80
19920 On ch=2 n=69 v=0
19920 On ch=2 n=64 v=80
19967 On ch=2 n=64 v=0
19967 On ch=2 n=71 v=80
20015 On ch=2 n=71 v=0
20015 On ch=2 n=64 v=80
20064 On ch=2 n=64 v=0
20064 On ch=2 n=76 v=80
20111 On ch=2 n=76 v=0
20111 On ch=2 n=64 v=80
20159 On ch=2 n=64 v=0
20159 On ch=2 n=71 v=80
20208 On ch=2 n=71 v=0
20208 On ch=2 n=64 v=80
20255 On ch=2 n=64 v=0
20255 On ch=2 n=69 v=80
20303 On ch=2 n=69 v=0
20303 On ch=2 n=64 v=80
20352 On ch=2 n=64 v=0
20352 On ch=2 n=67 v=80
20399 On ch=2 n=67 v=0
20399 On ch=2 n=64 v=80
20447 On ch=2 n=64 v=0
20447 On ch=2 n=69 v=80
20496 On ch=2 n=69 v=0
20496 On ch=2 n=64 v=80
20543 On ch=2 n=64 v=0
20543 On ch=2 n=71 v=80
20591 On ch=2 n=71 v=0
20591 On ch=2 n=64 v=80
20640 On ch=2 n=64 v=0
20640 On ch=2 n=76 v=80
20687 On ch=2 n=76 v=0
20687 On ch=2 n=64 v=80
20735 On ch=2 n=64 v=0
20735 On ch=2 n=69 v=80
20784 On ch=2 n=69 v=0
20784 On ch=2 n=64 v=80
20831 On ch=2 n=64 v=0
20831 On ch=2 n=76 v=80
20879 On ch=2 n=76 v=0
20879 On ch=2 n=64 v=80
20928 On ch=2 n=64 v=0
20928 On ch=2 n=71 v=80
20975 On ch=2 n=71 v=0
20975 On ch=2 n=64 v=80
21023 On ch=2 n=64 v=0
21023 On ch=2 n=76 v=80
21072 On ch=2 n=76 v=0
21072 On ch=2 n=64 v=80
21119 On ch=2 n=64 v=0
21119 On ch=2 n=72 v=80
21167 On ch=2 n=72 v=0
21167 On ch=2 n=64 v=80
21216 On ch=2 n=64 v=0
21216 On ch=2 n=76 v=80
21263 On ch=2 n=76 v=0
21263 On ch=2 n=64 v=80
21311 On ch=2 n=64 v=0
21311 On ch=2 n=71 v=80
21360 On ch=2 n=71 v=0
21360 On ch=2 n=64 v=80
21407 On ch=2 n=64 v=0
21407 On ch=2 n=76 v=80
21455 On ch=2 n=76 v=0
21455 On ch=2 n=64 v=80
21504 On ch=2 n=64 v=0
21504 On ch=2 n=69 v=80
21551 On ch=2 n=69 v=0
21551 On ch=2 n=64 v=80
21599 On ch=2 n=64 v=0
21599 On ch=2 n=76 v=80
21648 On ch=2 n=76 v=0
21648 On ch=2 n=64 v=80
21695 On ch=2 n=64 v=0
21695 On ch=2 n=71 v=80
21743 On ch=2 n=71 v=0
21743 On ch=2 n=64 v=80
21792 On ch=2 n=64 v=0
21792 On ch=2 n=76 v=80
21839 On ch=2 n=76 v=0
21839 On ch=2 n=64 v=80
21887 On ch=2 n=64 v=0
21887 On ch=2 n=72 v=80
21936 On ch=2 n=72 v=0
21936 On ch=2 n=64 v=80
21983 On ch=2 n=64 v=0
21983 On ch=2 n=74 v=80
22031 On ch=2 n=74 v=0
22031 On ch=2 n=64 v=80
22080 On ch=2 n=64 v=0
22080 On ch=2 n=72 v=80
22127 On ch=2 n=72 v=0
22127 On ch=2 n=64 v=80
22175 On ch=2 n=64 v=0
22175 On ch=2 n=71 v=80
22224 On ch=2 n=71 v=0
22224 On ch=2 n=64 v=80
22271 On ch=2 n=64 v=0
22271 On ch=2 n=69 v=80
22319 On ch=2 n=69 v=0
22319 On ch=2 n=64 v=80
22368 On ch=2 n=64 v=0
22368 On ch=2 n=72 v=80
22415 On ch=2 n=72 v=0
22415 On ch=2 n=64 v=80
22463 On ch=2 n=64 v=0
22463 On ch=2 n=71 v=80
22512 On ch=2 n=71 v=0
22512 On ch=2 n=64 v=80
22559 On ch=2 n=64 v=0
22559 On ch=2 n=69 v=80
22607 On ch=2 n=69 v=0
22607 On ch=2 n=64 v=80
22656 On ch=2 n=64 v=0
22656 On ch=2 n=67 v=80
22703 On ch=2 n=67 v=0
22703 On ch=2 n=64 v=80
22751 On ch=2 n=64 v=0
22751 On ch=2 n=69 v=80
22800 On ch=2 n=69 v=0
22800 On ch=2 n=64 v=80
22847 On ch=2 n=64 v=0
22847 On ch=2 n=71 v=80
22895 On ch=2 n=71 v=0
22895 On ch=2 n=64 v=80
22944 On ch=2 n=64 v=0
22944 On ch=2 n=76 v=80
22991 On ch=2 n=76 v=0
22991 On ch=2 n=64 v=80
23039 On ch=2 n=64 v=0
23039 On ch=2 n=71 v=80
23088 On ch=2 n=71 v=0
23088 On ch=2 n=64 v=80
23135 On ch=2 n=64 v=0
23135 On ch=2 n=69 v=80
23183 On ch=2 n=69 v=0
23183 On ch=2 n=64 v=80
23232 On ch=2 n=64 v=0
23232 On ch=2 n=67 v=80
23279 On ch=2 n=67 v=0
23279 On ch=2 n=64 v=80
23327 On ch=2 n=64 v=0
23327 On ch=2 n=69 v=80
23376 On ch=2 n=69 v=0
23376 On ch=2 n=64 v=80
23423 On ch=2 n=64 v=0
23423 On ch=2 n=71 v=80
23471 On ch=2 n=71 v=0
23471 On ch=2 n=64 v=80
23520 On ch=2 n=64 v=0
23520 On ch=2 n=76 v=80
23567 On ch=2 n=76 v=0
23567 On ch=2 n=64 v=80
23615 On ch=2 n=64 v=0
23615 On ch=2 n=69 v=80
23664 On ch=2 n=69 v=0
23664 On ch=2 n=64 v=80
23711 On ch=2 n=64 v=0
23711 On ch=2 n=69 v=80
23759 On ch=2 n=69 v=0
23759 On ch=2 n=64 v=80
23808 On ch=2 n=64 v=0
23808 On ch=2 n=69 v=80
23855 On ch=2 n=69 v=0
23855 On ch=2 n=64 v=80
23903 On ch=2 n=64 v=0
23903 On ch=2 n=69 v=80
23952 On ch=2 n=69 v=0
23952 On ch=2 n=64 v=80
23999 On ch=2 n=64 v=0
23999 On ch=2 n=76 v=80
24047 On ch=2 n=76 v=0
24047 On ch=2 n=64 v=80
24096 On ch=2 n=64 v=0
24096 On ch=2 n=69 v=80
24143 On ch=2 n=69 v=0
24143 On ch=2 n=64 v=80
24191 On ch=2 n=64 v=0
24191 On ch=2 n=72 v=80
24240 On ch=2 n=72 v=0
24240 On ch=2 n=64 v=80
24287 On ch=2 n=64 v=0
24287 On ch=2 n=71 v=80
24335 On ch=2 n=71 v=0
24335 On ch=2 n=64 v=80
24384 On ch=2 n=64 v=0
24384 On ch=2 n=69 v=80
24431 On ch=2 n=69 v=0
24431 On ch=2 n=64 v=80
24479 On ch=2 n=64 v=0
24479 On ch=2 n=71 v=80
24528 On ch=2 n=71 v=0
24528 On ch=2 n=64 v=80
24575 On ch=2 n=64 v=0
24575 On ch=2 n=72 v=80
24623 On ch=2 n=72 v=0
24623 On ch=2 n=64 v=80
24672 On ch=2 n=64 v=0
24672 On ch=2 n=69 v=80
24719 On ch=2 n=69 v=0
24719 On ch=2 n=64 v=80
24767 On ch=2 n=64 v=0
24767 On ch=2 n=71 v=80
24816 On ch=2 n=71 v=0
24816 On ch=2 n=64 v=80
24863 On ch=2 n=64 v=0
24863 On ch=2 n=69 v=80
24911 On ch=2 n=69 v=0
24911 On ch=2 n=64 v=80
24960 On ch=2 n=64 v=0
24960 On ch=2 n=67 v=80
25007 On ch=2 n=67 v=0
25007 On ch=2 n=64 v=80
25055 On ch=2 n=64 v=0
25055 On ch=2 n=69 v=80
25104 On ch=2 n=69 v=0
25104 On ch=2 n=64 v=80
25151 On ch=2 n=64 v=0
25151 On ch=2 n=71 v=80
25199 On ch=2 n=71 v=0
25199 On ch=2 n=64 v=80
25248 On ch=2 n=64 v=0
25248 On ch=2 n=76 v=80
25295 On ch=2 n=76 v=0
25295 On ch=2 n=64 v=80
25343 On ch=2 n=64 v=0
25343 On ch=2 n=71 v=80
25392 On ch=2 n=71 v=0
25392 On ch=2 n=64 v=80
25439 On ch=2 n=64 v=0
25439 On ch=2 n=69 v=80
25487 On ch=2 n=69 v=0
25487 On ch=2 n=64 v=80
25536 On ch=2 n=64 v=0
25536 On ch=2 n=67 v=80
25583 On ch=2 n=67 v=0
25583 On ch=2 n=64 v=80
25631 On ch=2 n=64 v=0
25631 On ch=2 n=69 v=80
25680 On ch=2 n=69 v=0
25680 On ch=2 n=64 v=80
25727 On ch=2 n=64 v=0
25727 On ch=2 n=71 v=80
25775 On ch=2 n=71 v=0
25775 On ch=2 n=64 v=80
25824 On ch=2 n=64 v=0
25824 On ch=2 n=76 v=80
25871 On ch=2 n=76 v=0
25871 On ch=2 n=64 v=80
25919 On ch=2 n=64 v=0
25919 On ch=2 n=69 v=80
25968 On ch=2 n=69 v=0
25968 On ch=2 n=64 v=80
26015 On ch=2 n=64 v=0
26015 On ch=2 n=69 v=80
26063 On ch=2 n=69 v=0
26063 On ch=2 n=64 v=80
26112 On ch=2 n=64 v=0
26112 On ch=2 n=76 v=80
26159 On ch=2 n=76 v=0
26159 On ch=2 n=64 v=80
26207 On ch=2 n=64 v=0
26207 On ch=2 n=69 v=80
26256 On ch=2 n=69 v=0
26256 On ch=2 n=64 v=80
26303 On ch=2 n=64 v=0
26303 On ch=2 n=72 v=80
26351 On ch=2 n=72 v=0
26351 On ch=2 n=64 v=80
26400 On ch=2 n=64 v=0
26400 On ch=2 n=76 v=80
26447 On ch=2 n=76 v=0
26447 On ch=2 n=64 v=80
26495 On ch=2 n=64 v=0
26495 On ch=2 n=71 v=80
26544 On ch=2 n=71 v=0
26544 On ch=2 n=64 v=80
26591 On ch=2 n=64 v=0
26591 On ch=2 n=76 v=80
26639 On ch=2 n=76 v=0
26639 On ch=2 n=64 v=80
26688 On ch=2 n=64 v=0
26688 On ch=2 n=69 v=80
26735 On ch=2 n=69 v=0
26735 On ch=2 n=64 v=80
26783 On ch=2 n=64 v=0
26783 On ch=2 n=76 v=80
26832 On ch=2 n=76 v=0
26832 On ch=2 n=64 v=80
26879 On ch=2 n=64 v=0
26879 On ch=2 n=71 v=80
26927 On ch=2 n=71 v=0
26927 On ch=2 n=64 v=80
26976 On ch=2 n=64 v=0
26976 On ch=2 n=76 v=80
27023 On ch=2 n=76 v=0
27023 On ch=2 n=64 v=80
27071 On ch=2 n=64 v=0
27071 On ch=2 n=72 v=80
27120 On ch=2 n=72 v=0
27120 On ch=2 n=64 v=80
27167 On ch=2 n=64 v=0
27167 On ch=2 n=74 v=80
27215 On ch=2 n=74 v=0
27215 On ch=2 n=64 v=80
27264 On ch=2 n=64 v=0
27264 On ch=2 n=72 v=80
27311 On ch=2 n=72 v=0
27311 On ch=2 n=64 v=80
27359 On ch=2 n=64 v=0
27359 On ch=2 n=71 v=80
27408 On ch=2 n=71 v=0
27408 On ch=2 n=64 v=80
27455 On ch=2 n=64 v=0
27455 On ch=2 n=69 v=80
27503 On ch=2 n=69 v=0
27503 On ch=2 n=64 v=80
27552 On ch=2 n=64 v=0
27552 On ch=2 n=72 v=80
27599 On ch=2 n=72 v=0
27599 On ch=2 n=64 v=80
27647 On ch=2 n=64 v=0
27647 On ch=2 n=71 v=80
27696 On ch=2 n=71 v=0
27696 On ch=2 n=64 v=80
27743 On ch=2 n=64 v=0
27743 On ch=2 n=69 v=80
27791 On ch=2 n=69 v=0
27791 On ch=2 n=64 v=80
27840 On ch=2 n=64 v=0
27840 On ch=2 n=67 v=80
27887 On ch=2 n=67 v=0
27887 On ch=2 n=64 v=80
27935 On ch=2 n=64 v=0
27935 On ch=2 n=69 v=80
27984 On ch=2 n=69 v=0
27984 On ch=2 n=64 v=80
28031 On ch=2 n=64 v=0
28031 On ch=2 n=71 v=80
28079 On ch=2 n=71 v=0
28079 On ch=2 n=64 v=80
28128 On ch=2 n=64 v=0
28128 On ch=2 n=76 v=80
28175 On ch=2 n=76 v=0
28175 On ch=2 n=64 v=80
28223 On ch=2 n=64 v=0
28223 On ch=2 n=71 v=80
28272 On ch=2 n=71 v=0
28272 On ch=2 n=64 v=80
28319 On ch=2 n=64 v=0
28319 On ch=2 n=69 v=80
28367 On ch=2 n=69 v=0
28367 On ch=2 n=64 v=80
28416 On ch=2 n=64 v=0
28416 On ch=2 n=67 v=80
28463 On ch=2 n=67 v=0
28463 On ch=2 n=64 v=80
28511 On ch=2 n=64 v=0
28511 On ch=2 n=69 v=80
28560 On ch=2 n=69 v=0
28560 On ch=2 n=64 v=80
28607 On ch=2 n=64 v=0
28607 On ch=2 n=71 v=80
28655 On ch=2 n=71 v=0
28655 On ch=2 n=64 v=80
28704 On ch=2 n=64 v=0
28704 On ch=2 n=76 v=80
28751 On ch=2 n=76 v=0
28751 On ch=2 n=64 v=80
28799 On ch=2 n=64 v=0
28799 On ch=2 n=69 v=80
28848 On ch=2 n=69 v=0
28848 On ch=2 n=64 v=80
28895 On ch=2 n=64 v=0
28895 On ch=2 n=69 v=80
28943 On ch=2 n=69 v=0
28943 On ch=2 n=64 v=80
28992 On ch=2 n=64 v=0
28992 On ch=2 n=76 v=80
29039 On ch=2 n=76 v=0
29039 On ch=2 n=64 v=80
29087 On ch=2 n=64 v=0
29087 On ch=2 n=69 v=80
29136 On ch=2 n=69 v=0
29136 On ch=2 n=64 v=80
29183 On ch=2 n=64 v=0
29183 On ch=2 n=72 v=80
29231 On ch=2 n=72 v=0
29231 On ch=2 n=64 v=80
29280 On ch=2 n=64 v=0
29280 On ch=2 n=76 v=80
29327 On ch=2 n=76 v=0
29327 On ch=2 n=64 v=80
29375 On ch=2 n=64 v=0
29375 On ch=2 n=71 v=80
29424 On ch=2 n=71 v=0
29424 On ch=2 n=64 v=80
29471 On ch=2 n=64 v=0
29471 On ch=2 n=76 v=80
29519 On ch=2 n=76 v=0
29519 On ch=2 n=64 v=80
29568 On ch=2 n=64 v=0
29568 On ch=2 n=69 v=80
29615 On ch=2 n=69 v=0
29615 On ch=2 n=64 v=80
29663 On ch=2 n=64 v=0
29663 On ch=2 n=76 v=80
29712 On ch=2 n=76 v=0
29712 On ch=2 n=64 v=80
29759 On ch=2 n=64 v=0
29759 On ch=2 n=71 v=80
29807 On ch=2 n=71 v=0
29807 On ch=2 n=64 v=80
29856 On ch=2 n=64 v=0
29856 On ch=2 n=76 v=80
29903 On ch=2 n=76 v=0
29903 On ch=2 n=64 v=80
29951 On ch=2 n=64 v=0
29951 On ch=2 n=72 v=80
30000 On ch=2 n=72 v=0
30000 On ch=2 n=64 v=80
30047 On ch=2 n=64 v=0
30047 On ch=2 n=74 v=80
30095 On ch=2 n=74 v=0
30095 On ch=2 n=64 v=80
30144 On ch=2 n=64 v=0
30144 On ch=2 n=72 v=80
30191 On ch=2 n=72 v=0
30191 On ch=2 n=64 v=80
30239 On ch=2 n=64 v=0
30239 On ch=2 n=71 v=80
30288 On ch=2 n=71 v=0
30288 On ch=2 n=64 v=80
30335 On ch=2 n=64 v=0
30335 On ch=2 n=69 v=80
30383 On ch=2 n=69 v=0
30383 On ch=2 n=64 v=80
30432 On ch=2 n=64 v=0
30432 On ch=2 n=72 v=80
30479 On ch=2 n=72 v=0
30479 On ch=2 n=64 v=80
30527 On ch=2 n=64 v=0
30527 On ch=2 n=74 v=80
30576 On ch=2 n=74 v=0
30576 On ch=2 n=64 v=80
30623 On ch=2 n=64 v=0
30623 On ch=2 n=74 v=80
30671 On ch=2 n=74 v=0
30671 On ch=2 n=64 v=80
30720 On ch=2 n=64 v=0
30720 On ch=2 n=74 v=80
30767 On ch=2 n=74 v=0
30767 On ch=2 n=64 v=80
30815 On ch=2 n=64 v=0
30815 On ch=2 n=74 v=80
30864 On ch=2 n=74 v=0
30864 On ch=2 n=64 v=80
30911 On ch=2 n=64 v=0
30911 On ch=2 n=74 v=80
30959 On ch=2 n=74 v=0
30959 On ch=2 n=64 v=80
31008 On ch=2 n=64 v=0
31008 On ch=2 n=74 v=80
31055 On ch=2 n=74 v=0
31055 On ch=2 n=64 v=80
31103 On ch=2 n=64 v=0
31103 On ch=2 n=76 v=80
31152 On ch=2 n=76 v=0
31152 On ch=2 n=64 v=80
31199 On ch=2 n=64 v=0
31199 On ch=2 n=76 v=80
31247 On ch=2 n=76 v=0
31247 On ch=2 n=64 v=80
31296 On ch=2 n=64 v=0
31296 On ch=2 n=76 v=80
31343 On ch=2 n=76 v=0
31343 On ch=2 n=64 v=80
31391 On ch=2 n=64 v=0
31391 On ch=2 n=76 v=80
31440 On ch=2 n=76 v=0
31440 On ch=2 n=64 v=80
31487 On ch=2 n=64 v=0
31487 On ch=2 n=76 v=80
31535 On ch=2 n=76 v=0
31535 On ch=2 n=64 v=80
31584 On ch=2 n=64 v=0
31584 On ch=2 n=76 v=80
31631 On ch=2 n=76 v=0
31631 On ch=2 n=64 v=80
31679 On ch=2 n=64 v=0
31679 On ch=2 n=76 v=80
31728 On ch=2 n=76 v=0
31728 On ch=2 n=64 v=80
31775 On ch=2 n=64 v=0
31775 On ch=2 n=76 v=80
31823 On ch=2 n=76 v=0
31823 On ch=2 n=64 v=80
31872 On ch=2 n=64 v=0
31872 On ch=2 n=76 v=80
31919 On ch=2 n=76 v=0
31919 On ch=2 n=64 v=80
31967 On ch=2 n=64 v=0
31967 On ch=2 n=76 v=80
32016 On ch=2 n=76 v=0
32016 On ch=2 n=64 v=80
32063 On ch=2 n=64 v=0
32063 On ch=2 n=76 v=80
32111 On ch=2 n=76 v=0
32111 On ch=2 n=64 v=80
32160 On ch=2 n=64 v=0
32160 On ch=2 n=76 v=80
32207 On ch=2 n=76 v=0
32207 On ch=2 n=64 v=80
32255 On ch=2 n=64 v=0
32255 On ch=2 n=76 v=80
32304 On ch=2 n=76 v=0
32304 On ch=2 n=64 v=80
32351 On ch=2 n=64 v=0
32351 On ch=2 n=76 v=80
32399 On ch=2 n=76 v=0
32399 On ch=2 n=64 v=80
32448 On ch=2 n=64 v=0
32448 On ch=2 n=76 v=80
32495 On ch=2 n=76 v=0
32495 On ch=2 n=64 v=80
32543 On ch=2 n=64 v=0
32543 On ch=2 n=76 v=80
32592 On ch=2 n=76 v=0
32592 On ch=2 n=64 v=80
32639 On ch=2 n=64 v=0
32639 On ch=2 n=76 v=80
32687 On ch=2 n=76 v=0
32687 On ch=2 n=64 v=80
32736 On ch=2 n=64 v=0
32736 On ch=2 n=76 v=80
32783 On ch=2 n=76 v=0
32783 On ch=2 n=64 v=80
32831 On ch=2 n=64 v=0
32831 On ch=2 n=76 v=80
32880 On ch=2 n=76 v=0
32880 On ch=2 n=64 v=80
32927 On ch=2 n=64 v=0
32927 On ch=2 n=76 v=80
32975 On ch=2 n=76 v=0
32975 On ch=2 n=64 v=80
33024 On ch=2 n=64 v=0
33024 On ch=2 n=76 v=80
33071 On ch=2 n=76 v=0
33071 On ch=2 n=64 v=80
33119 On ch=2 n=64 v=0
33119 On ch=2 n=76 v=80
33168 On ch=2 n=76 v=0
33168 On ch=2 n=64 v=80
33215 On ch=2 n=64 v=0
33215 On ch=2 n=76 v=80
33407 On ch=2 n=76 v=0
33407 On ch=2 n=57 v=80
33600 On ch=2 n=57 v=0
33600 On ch=2 n=64 v=80
33983 On ch=2 n=64 v=0
33983 On ch=2 n=57 v=80
34176 On ch=2 n=57 v=0
34176 On ch=2 n=64 v=80
34559 On ch=2 n=64 v=0
34559 On ch=2 n=59 v=80
34752 On ch=2 n=59 v=0
34752 On ch=2 n=64 v=80
35135 On ch=2 n=64 v=0
35135 On ch=2 n=59 v=80
35328 On ch=2 n=59 v=0
35328 On ch=2 n=64 v=80
35711 On ch=2 n=64 v=0
35711 On ch=2 n=60 v=80
35904 On ch=2 n=60 v=0
35904 On ch=2 n=64 v=80
36287 On ch=2 n=64 v=0
36287 On ch=2 n=60 v=80
36480 On ch=2 n=60 v=0
36480 On ch=2 n=64 v=80
36863 On ch=2 n=64 v=0
36863 On ch=2 n=62 v=80
37056 On ch=2 n=62 v=0
37056 On ch=2 n=64 v=80
37439 On ch=2 n=64 v=0
37439 On ch=2 n=62 v=80
37632 On ch=2 n=62 v=0
37632 On ch=2 n=64 v=80
37823 On ch=2 n=64 v=0
37823 On ch=2 n=59 v=80
38015 On ch=2 n=59 v=0
38015 On ch=2 n=57 v=80
38208 On ch=2 n=57 v=0
38208 On ch=2 n=64 v=80
38591 On ch=2 n=64 v=0
38591 On ch=2 n=57 v=80
38784 On ch=2 n=57 v=0
38784 On ch=2 n=64 v=80
38975 On ch=2 n=64 v=0
38975 On ch=2 n=57 v=80
39167 On ch=2 n=57 v=0
39167 On ch=2 n=59 v=80
39360 On ch=2 n=59 v=0
39360 On ch=2 n=64 v=80
39743 On ch=2 n=64 v=0
39743 On ch=2 n=59 v=80
39936 On ch=2 n=59 v=0
39936 On ch=2 n=64 v=80
40319 On ch=2 n=64 v=0
40319 On ch=2 n=60 v=80
40512 On ch=2 n=60 v=0
40512 On ch=2 n=64 v=80
40895 On ch=2 n=64 v=0
40895 On ch=2 n=60 v=80
41088 On ch=2 n=60 v=0
41088 On ch=2 n=64 v=80
41471 On ch=2 n=64 v=0
41471 On ch=2 n=62 v=80
41664 On ch=2 n=62 v=0
41664 On ch=2 n=64 v=80
42047 On ch=2 n=64 v=0
42047 On ch=2 n=62 v=80
42047 On ch=2 n=74 v=80
42240 On ch=2 n=62 v=0
42240 On ch=2 n=74 v=0
42240 On ch=2 n=64 v=80
42240 On ch=2 n=76 v=80
42431 On ch=2 n=64 v=0
42431 On ch=2 n=76 v=0
42431 On ch=2 n=59 v=80
42431 On ch=2 n=71 v=80
42623 On ch=2 n=59 v=0
42623 On ch=2 n=71 v=0
42623 On ch=2 n=57 v=80
42623 On ch=2 n=60 v=80
42623 On ch=2 n=69 v=80
42816 On ch=2 n=57 v=0
42816 On ch=2 n=60 v=0
42816 On ch=2 n=69 v=0
42816 On ch=2 n=64 v=80
42816 On ch=2 n=76 v=80
43199 On ch=2 n=64 v=0
43199 On ch=2 n=76 v=0
43199 On ch=2 n=57 v=80
43199 On ch=2 n=69 v=80
43392 On ch=2 n=57 v=0
43392 On ch=2 n=69 v=0
43392 On ch=2 n=64 v=80
43392 On ch=2 n=76 v=80
43775 On ch=2 n=64 v=0
43775 On ch=2 n=76 v=0
43775 On ch=2 n=59 v=80
43775 On ch=2 n=64 v=80
43775 On ch=2 n=71 v=80
43968 On ch=2 n=59 v=0
43968 On ch=2 n=64 v=0
43968 On ch=2 n=71 v=0
43968 On ch=2 n=64 v=80
43968 On ch=2 n=76 v=80
44351 On ch=2 n=64 v=0
44351 On ch=2 n=76 v=0
44351 On ch=2 n=59 v=80
44351 On ch=2 n=71 v=80
44544 On ch=2 n=59 v=0
44544 On ch=2 n=71 v=0
44544 On ch=2 n=64 v=80
44544 On ch=2 n=76 v=80
44927 On ch=2 n=64 v=0
44927 On ch=2 n=76 v=0
44927 On ch=2 n=60 v=80
44927 On ch=2 n=64 v=80
44927 On ch=2 n=72 v=80
45120 On ch=2 n=60 v=0
45120 On ch=2 n=64 v=0
45120 On ch=2 n=72 v=0
45120 On ch=2 n=64 v=80
45120 On ch=2 n=76 v=80
45503 On ch=2 n=64 v=0
45503 On ch=2 n=76 v=0
45503 On ch=2 n=60 v=80
45503 On ch=2 n=72 v=80
45696 On ch=2 n=60 v=0
45696 On ch=2 n=72 v=0
45696 On ch=2 n=64 v=80
45696 On ch=2 n=76 v=80
46079 On ch=2 n=64 v=0
46079 On ch=2 n=76 v=0
46079 On ch=2 n=62 v=80
46079 On ch=2 n=67 v=80
46079 On ch=2 n=74 v=80
46272 On ch=2 n=62 v=0
46272 On ch=2 n=67 v=0
46272 On ch=2 n=74 v=0
46272 On ch=2 n=64 v=80
46272 On ch=2 n=76 v=80
46655 On ch=2 n=64 v=0
46655 On ch=2 n=76 v=0
46655 On ch=2 n=62 v=80
46655 On ch=2 n=74 v=80
46848 On ch=2 n=62 v=0
46848 On ch=2 n=74 v=0
46848 On ch=2 n=64 v=80
46848 On ch=2 n=76 v=80
47231 On ch=2 n=64 v=0
47231 On ch=2 n=76 v=0
47231 On ch=2 n=64 v=80
47231 On ch=2 n=67 v=80
47231 On ch=2 n=76 v=80
47615 On ch=2 n=64 v=0
47615 On ch=2 n=67 v=0
47615 On ch=2 n=76 v=0
47615 On ch=2 n=64 v=80
47807 On ch=2 n=64 v=0
47807 On ch=2 n=64 v=80
48000 On ch=2 n=64 v=0
48000 On ch=2 n=64 v=80
48191 On ch=2 n=64 v=0
48191 On ch=2 n=64 v=80
48383 On ch=2 n=64 v=0
48383 On ch=2 n=64 v=80
48576 On ch=2 n=64 v=0
48576 On ch=2 n=64 v=80
48767 On ch=2 n=64 v=0
48767 On ch=2 n=64 v=80
48959 On ch=2 n=64 v=0
48959 On ch=2 n=81 v=80
48959 On ch=2 n=84 v=80
49008 On ch=2 n=81 v=0
49008 On ch=2 n=84 v=0
49008 On ch=2 n=76 v=80
49055 On ch=2 n=76 v=0
49055 On ch=2 n=81 v=80
49055 On ch=2 n=84 v=80
49103 On ch=2 n=81 v=0
49103 On ch=2 n=84 v=0
49103 On ch=2 n=76 v=80
49152 On ch=2 n=76 v=0
49152 On ch=2 n=81 v=80
49152 On ch=2 n=84 v=80
49199 On ch=2 n=81 v=0
49199 On ch=2 n=84 v=0
49199 On ch=2 n=76 v=80
49247 On ch=2 n=76 v=0
49247 On ch=2 n=81 v=80
49247 On ch=2 n=84 v=80
49296 On ch=2 n=81 v=0
49296 On ch=2 n=84 v=0
49296 On ch=2 n=76 v=80
49343 On ch=2 n=76 v=0
49343 On ch=2 n=81 v=80
49343 On ch=2 n=84 v=80
49391 On ch=2 n=81 v=0
49391 On ch=2 n=84 v=0
49391 On ch=2 n=76 v=80
49440 On ch=2 n=76 v=0
49440 On ch=2 n=81 v=80
49440 On ch=2 n=84 v=80
49487 On ch=2 n=81 v=0
49487 On ch=2 n=84 v=0
49487 On ch=2 n=76 v=80
49535 On ch=2 n=76 v=0
49535 On ch=2 n=81 v=80
49535 On ch=2 n=84 v=80
49584 On ch=2 n=81 v=0
49584 On ch=2 n=84 v=0
49584 On ch=2 n=76 v=80
49631 On ch=2 n=76 v=0
49631 On ch=2 n=81 v=80
49631 On ch=2 n=84 v=80
49679 On ch=2 n=81 v=0
49679 On ch=2 n=84 v=0
49679 On ch=2 n=76 v=80
49728 On ch=2 n=76 v=0
49728 On ch=2 n=81 v=80
49728 On ch=2 n=84 v=80
49775 On ch=2 n=81 v=0
49775 On ch=2 n=84 v=0
49775 On ch=2 n=76 v=80
49823 On ch=2 n=76 v=0
49823 On ch=2 n=81 v=80
49823 On ch=2 n=84 v=80
49872 On ch=2 n=81 v=0
49872 On ch=2 n=84 v=0
49872 On ch=2 n=76 v=80
49919 On ch=2 n=76 v=0
49919 On ch=2 n=81 v=80
49919 On ch=2 n=84 v=80
49967 On ch=2 n=81 v=0
49967 On ch=2 n=84 v=0
49967 On ch=2 n=76 v=80
50016 On ch=2 n=76 v=0
50016 On ch=2 n=81 v=80
50016 On ch=2 n=84 v=80
50063 On ch=2 n=81 v=0
50063 On ch=2 n=84 v=0
50063 On ch=2 n=76 v=80
50111 On ch=2 n=76 v=0
50111 On ch=2 n=79 v=80
50111 On ch=2 n=83 v=80
50111 On ch=2 n=86 v=80
50160 On ch=2 n=79 v=0
50160 On ch=2 n=83 v=0
50160 On ch=2 n=86 v=0
50160 On ch=2 n=76 v=80
50207 On ch=2 n=76 v=0
50207 On ch=2 n=79 v=80
50207 On ch=2 n=83 v=80
50207 On ch=2 n=86 v=80
50255 On ch=2 n=79 v=0
50255 On ch=2 n=83 v=0
50255 On ch=2 n=86 v=0
50255 On ch=2 n=76 v=80
50304 On ch=2 n=76 v=0
50304 On ch=2 n=79 v=80
50304 On ch=2 n=83 v=80
50304 On ch=2 n=86 v=80
50351 On ch=2 n=79 v=0
50351 On ch=2 n=83 v=0
50351 On ch=2 n=86 v=0
50351 On ch=2 n=76 v=80
50399 On ch=2 n=76 v=0
50399 On ch=2 n=79 v=80
50399 On ch=2 n=83 v=80
50399 On ch=2 n=86 v=80
50448 On ch=2 n=79 v=0
50448 On ch=2 n=83 v=0
50448 On ch=2 n=86 v=0
50448 On ch=2 n=76 v=80
50495 On ch=2 n=76 v=0
50495 On ch=2 n=79 v=80
50495 On ch=2 n=83 v=80
50495 On ch=2 n=86 v=80
50543 On ch=2 n=79 v=0
50543 On ch=2 n=83 v=0
50543 On ch=2 n=86 v=0
50543 On ch=2 n=76 v=80
50592 On ch=2 n=76 v=0
50592 On ch=2 n=79 v=80
50592 On ch=2 n=83 v=80
50592 On ch=2 n=86 v=80
50639 On ch=2 n=79 v=0
50639 On ch=2 n=83 v=0
50639 On ch=2 n=86 v=0
50639 On ch=2 n=76 v=80
50687 On ch=2 n=76 v=0
50687 On ch=2 n=79 v=80
50687 On ch=2 n=83 v=80
50687 On ch=2 n=86 v=80
50736 On ch=2 n=79 v=0
50736 On ch=2 n=83 v=0
50736 On ch=2 n=86 v=0
50736 On ch=2 n=76 v=80
50783 On ch=2 n=76 v=0
50783 On ch=2 n=79 v=80
50783 On ch=2 n=83 v=80
50783 On ch=2 n=86 v=80
50831 On ch=2 n=79 v=0
50831 On ch=2 n=83 v=0
50831 On ch=2 n=86 v=0
50831 On ch=2 n=76 v=80
50880 On ch=2 n=76 v=0
50880 On ch=2 n=79 v=80
50880 On ch=2 n=83 v=80
50880 On ch=2 n=86 v=80
50927 On ch=2 n=79 v=0
50927 On ch=2 n=83 v=0
50927 On ch=2 n=86 v=0
50927 On ch=2 n=76 v=80
50975 On ch=2 n=76 v=0
50975 On ch=2 n=79 v=80
50975 On ch=2 n=83 v=80
50975 On ch=2 n=86 v=80
51024 On ch=2 n=79 v=0
51024 On ch=2 n=83 v=0
51024 On ch=2 n=86 v=0
51024 On ch=2 n=76 v=80
51071 On ch=2 n=76 v=0
51071 On ch=2 n=79 v=80
51071 On ch=2 n=83 v=80
51071 On ch=2 n=86 v=80
51119 On ch=2 n=79 v=0
51119 On ch=2 n=83 v=0
51119 On ch=2 n=86 v=0
51119 On ch=2 n=76 v=80
51168 On ch=2 n=76 v=0
51168 On ch=2 n=79 v=80
51168 On ch=2 n=83 v=80
51168 On ch=2 n=86 v=80
51215 On ch=2 n=79 v=0
51215 On ch=2 n=83 v=0
51215 On ch=2 n=86 v=0
51215 On ch=2 n=76 v=80
51263 On ch=2 n=76 v=0
51263 On ch=2 n=76 v=80
51263 On ch=2 n=81 v=80
51263 On ch=2 n=84 v=80
51312 On ch=2 n=76 v=0
51312 On ch=2 n=81 v=0
51312 On ch=2 n=84 v=0
51312 On ch=2 n=72 v=80
51359 On ch=2 n=72 v=0
51359 On ch=2 n=76 v=80
51359 On ch=2 n=81 v=80
51359 On ch=2 n=84 v=80
51407 On ch=2 n=76 v=0
51407 On ch=2 n=81 v=0
51407 On ch=2 n=84 v=0
51407 On ch=2 n=72 v=80
51456 On ch=2 n=72 v=0
51456 On ch=2 n=76 v=80
51456 On ch=2 n=81 v=80
51456 On ch=2 n=84 v=80
51503 On ch=2 n=76 v=0
51503 On ch=2 n=81 v=0
51503 On ch=2 n=84 v=0
51503 On ch=2 n=72 v=80
51551 On ch=2 n=72 v=0
51551 On ch=2 n=76 v=80
51551 On ch=2 n=81 v=80
51551 On ch=2 n=84 v=80
51600 On ch=2 n=76 v=0
51600 On ch=2 n=81 v=0
51600 On ch=2 n=84 v=0
51600 On ch=2 n=72 v=80
51647 On ch=2 n=72 v=0
51647 On ch=2 n=76 v=80
51647 On ch=2 n=81 v=80
51647 On ch=2 n=84 v=80
51695 On ch=2 n=76 v=0
51695 On ch=2 n=81 v=0
51695 On ch=2 n=84 v=0
51695 On ch=2 n=72 v=80
51744 On ch=2 n=72 v=0
51744 On ch=2 n=76 v=80
51744 On ch=2 n=81 v=80
51744 On ch=2 n=84 v=80
51791 On ch=2 n=76 v=0
51791 On ch=2 n=81 v=0
51791 On ch=2 n=84 v=0
51791 On ch=2 n=72 v=80
51839 On ch=2 n=72 v=0
51839 On ch=2 n=76 v=80
51839 On ch=2 n=81 v=80
51839 On ch=2 n=84 v=80
51888 On ch=2 n=76 v=0
51888 On ch=2 n=81 v=0
51888 On ch=2 n=84 v=0
51888 On ch=2 n=72 v=80
51935 On ch=2 n=72 v=0
51935 On ch=2 n=76 v=80
51935 On ch=2 n=81 v=80
51935 On ch=2 n=84 v=80
51983 On ch=2 n=76 v=0
51983 On ch=2 n=81 v=0
51983 On ch=2 n=84 v=0
51983 On ch=2 n=72 v=80
52032 On ch=2 n=72 v=0
52032 On ch=2 n=76 v=80
52032 On ch=2 n=81 v=80
52032 On ch=2 n=84 v=80
52079 On ch=2 n=76 v=0
52079 On ch=2 n=81 v=0
52079 On ch=2 n=84 v=0
52079 On ch=2 n=72 v=80
52127 On ch=2 n=72 v=0
52127 On ch=2 n=76 v=80
52127 On ch=2 n=81 v=80
52127 On ch=2 n=84 v=80
52176 On ch=2 n=76 v=0
52176 On ch=2 n=81 v=0
52176 On ch=2 n=84 v=0
52176 On ch=2 n=72 v=80
52223 On ch=2 n=72 v=0
52223 On ch=2 n=76 v=80
52223 On ch=2 n=81 v=80
52223 On ch=2 n=84 v=80
52271 On ch=2 n=76 v=0
52271 On ch=2 n=81 v=0
52271 On ch=2 n=84 v=0
52271 On ch=2 n=72 v=80
52320 On ch=2 n=72 v=0
52320 On ch=2 n=76 v=80
52320 On ch=2 n=81 v=80
52320 On ch=2 n=84 v=80
52367 On ch=2 n=76 v=0
52367 On ch=2 n=81 v=0
52367 On ch=2 n=84 v=0
52367 On ch=2 n=72 v=80
52415 On ch=2 n=72 v=0
52415 On ch=2 n=79 v=80
52415 On ch=2 n=83 v=80
52415 On ch=2 n=86 v=80
52464 On ch=2 n=79 v=0
52464 On ch=2 n=83 v=0
52464 On ch=2 n=86 v=0
52464 On ch=2 n=74 v=80
52511 On ch=2 n=74 v=0
52511 On ch=2 n=79 v=80
52511 On ch=2 n=83 v=80
52511 On ch=2 n=86 v=80
52559 On ch=2 n=79 v=0
52559 On ch=2 n=83 v=0
52559 On ch=2 n=86 v=0
52559 On ch=2 n=74 v=80
52608 On ch=2 n=74 v=0
52608 On ch=2 n=79 v=80
52608 On ch=2 n=83 v=80
52608 On ch=2 n=86 v=80
52655 On ch=2 n=79 v=0
52655 On ch=2 n=83 v=0
52655 On ch=2 n=86 v=0
52655 On ch=2 n=74 v=80
52703 On ch=2 n=74 v=0
52703 On ch=2 n=79 v=80
52703 On ch=2 n=83 v=80
52703 On ch=2 n=86 v=80
52752 On ch=2 n=79 v=0
52752 On ch=2 n=83 v=0
52752 On ch=2 n=86 v=0
52752 On ch=2 n=74 v=80
52799 On ch=2 n=74 v=0
52799 On ch=2 n=79 v=80
52799 On ch=2 n=83 v=80
52799 On ch=2 n=86 v=80
52847 On ch=2 n=79 v=0
52847 On ch=2 n=83 v=0
52847 On ch=2 n=86 v=0
52847 On ch=2 n=74 v=80
52896 On ch=2 n=74 v=0
52896 On ch=2 n=79 v=80
52896 On ch=2 n=83 v=80
52896 On ch=2 n=86 v=80
52943 On ch=2 n=79 v=0
52943 On ch=2 n=83 v=0
52943 On ch=2 n=86 v=0
52943 On ch=2 n=74 v=80
52991 On ch=2 n=74 v=0
52991 On ch=2 n=79 v=80
52991 On ch=2 n=83 v=80
52991 On ch=2 n=86 v=80
53040 On ch=2 n=79 v=0
53040 On ch=2 n=83 v=0
53040 On ch=2 n=86 v=0
53040 On ch=2 n=74 v=80
53087 On ch=2 n=74 v=0
53087 On ch=2 n=79 v=80
53087 On ch=2 n=83 v=80
53087 On ch=2 n=86 v=80
53135 On ch=2 n=79 v=0
53135 On ch=2 n=83 v=0
53135 On ch=2 n=86 v=0
53135 On ch=2 n=74 v=80
53184 On ch=2 n=74 v=0
53184 On ch=2 n=79 v=80
53184 On ch=2 n=83 v=80
53184 On ch=2 n=86 v=80
53231 On ch=2 n=79 v=0
53231 On ch=2 n=83 v=0
53231 On ch=2 n=86 v=0
53231 On ch=2 n=74 v=80
53279 On ch=2 n=74 v=0
53279 On ch=2 n=79 v=80
53279 On ch=2 n=83 v=80
53279 On ch=2 n=86 v=80
53328 On ch=2 n=79 v=0
53328 On ch=2 n=83 v=0
53328 On ch=2 n=86 v=0
53328 On ch=2 n=74 v=80
53375 On ch=2 n=74 v=0
53375 On ch=2 n=79 v=80
53375 On ch=2 n=83 v=80
53375 On ch=2 n=86 v=80
53423 On ch=2 n=79 v=0
53423 On ch=2 n=83 v=0
53423 On ch=2 n=86 v=0
53423 On ch=2 n=74 v=80
53472 On ch=2 n=74 v=0
53472 On ch=2 n=79 v=80
53472 On ch=2 n=83 v=80
53472 On ch=2 n=86 v=80
53519 On ch=2 n=79 v=0
53519 On ch=2 n=83 v=0
53519 On ch=2 n=86 v=0
53519 On ch=2 n=74 v=80
53567 On ch=2 n=74 v=0
53567 On ch=2 n=81 v=80
53567 On ch=2 n=84 v=80
53567 On ch=2 n=88 v=80
53616 On ch=2 n=81 v=0
53616 On ch=2 n=84 v=0
53616 On ch=2 n=88 v=0
53616 On ch=2 n=76 v=80
53663 On ch=2 n=76 v=0
53663 On ch=2 n=81 v=80
53663 On ch=2 n=84 v=80
53663 On ch=2 n=88 v=80
53711 On ch=2 n=81 v=0
53711 On ch=2 n=84 v=0
53711 On ch=2 n=88 v=0
53711 On ch=2 n=76 v=80
53760 On ch=2 n=76 v=0
53760 On ch=2 n=81 v=80
53760 On ch=2 n=84 v=80
53760 On ch=2 n=88 v=80
53807 On ch=2 n=81 v=0
53807 On ch=2 n=84 v=0
53807 On ch=2 n=88 v=0
53807 On ch=2 n=76 v=80
53855 On ch=2 n=76 v=0
53855 On ch=2 n=81 v=80
53855 On ch=2 n=84 v=80
53855 On ch=2 n=88 v=80
53904 On ch=2 n=81 v=0
53904 On ch=2 n=84 v=0
53904 On ch=2 n=88 v=0
53904 On ch=2 n=76 v=80
53951 On ch=2 n=76 v=0
53951 On ch=2 n=81 v=80
53951 On ch=2 n=84 v=80
53951 On ch=2 n=88 v=80
53999 On ch=2 n=81 v=0
53999 On ch=2 n=84 v=0
53999 On ch=2 n=88 v=0
53999 On ch=2 n=76 v=80
54048 On ch=2 n=76 v=0
54048 On ch=2 n=81 v=80
54048 On ch=2 n=84 v=80
54048 On ch=2 n=88 v=80
54095 On ch=2 n=81 v=0
54095 On ch=2 n=84 v=0
54095 On ch=2 n=88 v=0
54095 On ch=2 n=76 v=80
54143 On ch=2 n=76 v=0
54143 On ch=2 n=81 v=80
54143 On ch=2 n=84 v=80
54143 On ch=2 n=88 v=80
54192 On ch=2 n=81 v=0
54192 On ch=2 n=84 v=0
54192 On ch=2 n=88 v=0
54192 On ch=2 n=76 v=80
54239 On ch=2 n=76 v=0
54239 On ch=2 n=81 v=80
54239 On ch=2 n=84 v=80
54239 On ch=2 n=88 v=80
54287 On ch=2 n=81 v=0
54287 On ch=2 n=84 v=0
54287 On ch=2 n=88 v=0
54287 On ch=2 n=76 v=80
54336 On ch=2 n=76 v=0
54336 On ch=2 n=81 v=80
54336 On ch=2 n=84 v=80
54336 On ch=2 n=88 v=80
54383 On ch=2 n=81 v=0
54383 On ch=2 n=84 v=0
54383 On ch=2 n=88 v=0
54383 On ch=2 n=76 v=80
54431 On ch=2 n=76 v=0
54431 On ch=2 n=81 v=80
54431 On ch=2 n=84 v=80
54431 On ch=2 n=88 v=80
54480 On ch=2 n=81 v=0
54480 On ch=2 n=84 v=0
54480 On ch=2 n=88 v=0
54480 On ch=2 n=76 v=80
54527 On ch=2 n=76 v=0
54527 On ch=2 n=81 v=80
54527 On ch=2 n=84 v=80
54527 On ch=2 n=88 v=80
54575 On ch=2 n=81 v=0
54575 On ch=2 n=84 v=0
54575 On ch=2 n=88 v=0
54575 On ch=2 n=76 v=80
54624 On ch=2 n=76 v=0
54624 On ch=2 n=81 v=80
54624 On ch=2 n=84 v=80
54624 On ch=2 n=88 v=80
54671 On ch=2 n=81 v=0
54671 On ch=2 n=84 v=0
54671 On ch=2 n=88 v=0
54671 On ch=2 n=76 v=80
54719 On ch=2 n=76 v=0
54719 On ch=2 n=79 v=80
54719 On ch=2 n=84 v=80
54719 On ch=2 n=88 v=80
54768 On ch=2 n=79 v=0
54768 On ch=2 n=84 v=0
54768 On ch=2 n=88 v=0
54768 On ch=2 n=76 v=80
54815 On ch=2 n=76 v=0
54815 On ch=2 n=79 v=80
54815 On ch=2 n=84 v=80
54815 On ch=2 n=88 v=80
54863 On ch=2 n=79 v=0
54863 On ch=2 n=84 v=0
54863 On ch=2 n=88 v=0
54863 On ch=2 n=76 v=80
54912 On ch=2 n=76 v=0
54912 On ch=2 n=79 v=80
54912 On ch=2 n=84 v=80
54912 On ch=2 n=88 v=80
54959 On ch=2 n=79 v=0
54959 On ch=2 n=84 v=0
54959 On ch=2 n=88 v=0
54959 On ch=2 n=76 v=80
55007 On ch=2 n=76 v=0
55007 On ch=2 n=79 v=80
55007 On ch=2 n=84 v=80
55007 On ch=2 n=88 v=80
55056 On ch=2 n=79 v=0
55056 On ch=2 n=84 v=0
55056 On ch=2 n=88 v=0
55056 On ch=2 n=76 v=80
55103 On ch=2 n=76 v=0
55103 On ch=2 n=79 v=80
55103 On ch=2 n=84 v=80
55103 On ch=2 n=88 v=80
55151 On ch=2 n=79 v=0
55151 On ch=2 n=84 v=0
55151 On ch=2 n=88 v=0
55151 On ch=2 n=76 v=80
55200 On ch=2 n=76 v=0
55200 On ch=2 n=79 v=80
55200 On ch=2 n=84 v=80
55200 On ch=2 n=88 v=80
55247 On ch=2 n=79 v=0
55247 On ch=2 n=84 v=0
55247 On ch=2 n=88 v=0
55247 On ch=2 n=76 v=80
55295 On ch=2 n=76 v=0
55295 On ch=2 n=79 v=80
55295 On ch=2 n=83 v=80
55295 On ch=2 n=86 v=80
55344 On ch=2 n=79 v=0
55344 On ch=2 n=83 v=0
55344 On ch=2 n=86 v=0
55344 On ch=2 n=76 v=80
55391 On ch=2 n=76 v=0
55391 On ch=2 n=79 v=80
55391 On ch=2 n=83 v=80
55391 On ch=2 n=86 v=80
55439 On ch=2 n=79 v=0
55439 On ch=2 n=83 v=0
55439 On ch=2 n=86 v=0
55439 On ch=2 n=76 v=80
55488 On ch=2 n=76 v=0
55488 On ch=2 n=79 v=80
55488 On ch=2 n=83 v=80
55488 On ch=2 n=86 v=80
55535 On ch=2 n=79 v=0
55535 On ch=2 n=83 v=0
55535 On ch=2 n=86 v=0
55535 On ch=2 n=76 v=80
55583 On ch=2 n=76 v=0
55583 On ch=2 n=79 v=80
55583 On ch=2 n=83 v=80
55583 On ch=2 n=86 v=80
55632 On ch=2 n=79 v=0
55632 On ch=2 n=83 v=0
55632 On ch=2 n=86 v=0
55632 On ch=2 n=76 v=80
55679 On ch=2 n=76 v=0
55679 On ch=2 n=79 v=80
55679 On ch=2 n=83 v=80
55679 On ch=2 n=86 v=80
55727 On ch=2 n=79 v=0
55727 On ch=2 n=83 v=0
55727 On ch=2 n=86 v=0
55727 On ch=2 n=76 v=80
55776 On ch=2 n=76 v=0
55776 On ch=2 n=79 v=80
55776 On ch=2 n=83 v=80
55776 On ch=2 n=86 v=80
55823 On ch=2 n=79 v=0
55823 On ch=2 n=83 v=0
55823 On ch=2 n=86 v=0
55823 On ch=2 n=76 v=80
55871 On ch=2 n=76 v=0
55871 On ch=2 n=76 v=80
55871 On ch=2 n=79 v=80
55871 On ch=2 n=88 v=80
56255 On ch=2 n=76 v=0
56255 On ch=2 n=79 v=0
56255 On ch=2 n=88 v=0
56255 On ch=2 n=64 v=80
56447 On ch=2 n=64 v=0
56447 On ch=2 n=64 v=80
56640 On ch=2 n=64 v=0
56640 On ch=2 n=64 v=80
56831 On ch=2 n=64 v=0
56831 On ch=2 n=64 v=80
57023 On ch=2 n=64 v=0
57023 On ch=2 n=64 v=80
57216 On ch=2 n=64 v=0
57216 On ch=2 n=64 v=80
57407 On ch=2 n=64 v=0
57407 On ch=2 n=64 v=80
57599 On ch=2 n=64 v=0
57599 On ch=2 n=64 v=80
57792 On ch=2 n=64 v=0
57792 On ch=2 n=64 v=80
58171 On ch=2 n=64 v=0